<?xml version="1.0" encoding="UTF-8" standalone="no"?>
<!DOCTYPE svg PUBLIC "-//W3C//DTD SVG 1.1//EN" "http://www.w3.org/Graphics/SVG/1.1/DTD/svg11.dtd">
<svg width="100%" height="100%" viewBox="0 0 1000 1000" version="1.1" xmlns="http://www.w3.org/2000/svg" xmlns:xlink="http://www.w3.org/1999/xlink" xml:space="preserve" xmlns:serif="http://www.serif.com/" style="fill-rule:evenodd;clip-rule:evenodd;stroke-miterlimit:1.5;">
    <g id="Brainstorm" transform="matrix(1,0,0,1,32.499,61.5391)">
        <g transform="matrix(0.651817,0.376327,-0.376327,0.651817,223.821,-3.81734)">
            <path d="M188.494,141.87L205.575,162.226C173.985,188.732 155.741,227.857 155.741,269.094C155.741,346.141 218.201,408.6 295.248,408.6L295.248,435.173C203.525,435.173 129.169,360.817 129.169,269.094C129.169,220.002 150.888,173.425 188.494,141.87Z" style="fill:white;"/>
        </g>
        <g transform="matrix(0.194801,0.727008,-0.727008,0.194801,543.12,-74.3904)">
            <path d="M188.494,141.87L205.575,162.226C173.985,188.732 155.741,227.857 155.741,269.094C155.741,325.962 190.26,377.139 242.988,398.442L233.033,423.08C170.263,397.719 129.169,336.794 129.169,269.094C129.169,220.002 150.888,173.425 188.494,141.87Z" style="fill:white;"/>
        </g>
        <g transform="matrix(-0.194801,0.727008,-0.727008,-0.194801,783.149,30.4491)">
            <path d="M343.805,110.272L336.035,135.683C322.817,131.642 309.071,129.587 295.248,129.587C218.252,129.587 155.741,192.098 155.741,269.094C155.741,312.037 175.519,352.588 209.359,379.026L192.999,399.966C152.714,368.491 129.169,320.217 129.169,269.094C129.169,177.432 203.586,103.015 295.248,103.015C311.703,103.015 328.068,105.46 343.805,110.272Z" style="fill:white;"/>
        </g>
        <g transform="matrix(-0.651817,0.376327,-0.376327,-0.651817,913.716,346.967)">
            <path d="M295.248,103.015L295.248,129.587C218.201,129.587 155.741,192.047 155.741,269.094C155.741,310.331 173.985,349.455 205.575,375.962L188.494,396.318C150.888,364.762 129.169,318.186 129.169,269.094C129.169,177.371 203.525,103.015 295.248,103.015Z" style="fill:white;"/>
        </g>
        <g transform="matrix(0.889301,-0.103319,-0.0295712,0.959115,116.789,85.5388)">
            <path d="M169.106,327.591L560.348,574.779" style="fill:none;stroke:white;stroke-width:23.32px;"/>
        </g>
        <g transform="matrix(0.883328,-0.106768,-0.0333452,0.956936,201.735,4.45016)">
            <path d="M169.106,327.591L560.348,574.779" style="fill:none;stroke:white;stroke-width:23.53px;"/>
        </g>
        <g transform="matrix(-0.142223,-0.0330457,0.0199488,0.173132,695.4,331.206)">
            <path d="M134.606,313.074L1579.53,588.867" style="fill:none;stroke:white;stroke-width:152.11px;"/>
        </g>
        <g transform="matrix(0.701252,0,0,0.701252,202.43,10.717)">
            <path d="M595.465,323.676C630.882,323.676 659.636,352.43 659.636,387.847C659.636,423.264 630.882,452.018 595.465,452.018C560.048,452.018 531.294,423.264 531.294,387.847C531.294,352.43 560.048,323.676 595.465,323.676ZM595.465,352.197C575.789,352.197 559.814,368.171 559.814,387.847C559.814,407.523 575.789,423.498 595.465,423.498C615.141,423.498 631.115,407.523 631.115,387.847C631.115,368.171 615.141,352.197 595.465,352.197Z" style="fill:white;"/>
        </g>
        <g transform="matrix(0.701252,0,0,0.701252,-102.57,10.7326)">
            <path d="M595.465,323.676C630.882,323.676 659.636,352.43 659.636,387.847C659.636,423.264 630.882,452.018 595.465,452.018C560.048,452.018 531.294,423.264 531.294,387.847C531.294,352.43 560.048,323.676 595.465,323.676ZM595.465,352.197C575.789,352.197 559.814,368.171 559.814,387.847C559.814,407.523 575.789,423.498 595.465,423.498C615.141,423.498 631.115,407.523 631.115,387.847C631.115,368.171 615.141,352.197 595.465,352.197Z" style="fill:white;"/>
        </g>
        <g transform="matrix(-0.651817,-0.376327,0.376327,-0.651817,711.181,880.739)">
            <path d="M188.494,141.87L205.575,162.226C173.985,188.732 155.741,227.857 155.741,269.094C155.741,346.141 218.201,408.6 295.248,408.6L295.248,435.173C203.525,435.173 129.169,360.817 129.169,269.094C129.169,220.002 150.888,173.425 188.494,141.87Z" style="fill:white;"/>
        </g>
        <g transform="matrix(-0.194801,-0.727008,0.727008,-0.194801,391.882,951.312)">
            <path d="M188.494,141.87L205.575,162.226C173.985,188.732 155.741,227.857 155.741,269.094C155.741,325.962 190.26,377.139 242.988,398.442L233.033,423.08C170.263,397.719 129.169,336.794 129.169,269.094C129.169,220.002 150.888,173.425 188.494,141.87Z" style="fill:white;"/>
        </g>
        <g transform="matrix(0.194801,-0.727008,0.727008,0.194801,151.853,846.473)">
            <path d="M343.805,110.272L336.035,135.683C322.817,131.642 309.071,129.587 295.248,129.587C218.252,129.587 155.741,192.098 155.741,269.094C155.741,312.037 175.519,352.588 209.359,379.026L192.999,399.966C152.714,368.491 129.169,320.217 129.169,269.094C129.169,177.432 203.586,103.015 295.248,103.015C311.703,103.015 328.068,105.46 343.805,110.272Z" style="fill:white;"/>
        </g>
        <g transform="matrix(0.651817,-0.376327,0.376327,0.651817,21.2862,529.955)">
            <path d="M295.248,103.015L295.248,129.587C218.201,129.587 155.741,192.047 155.741,269.094C155.741,310.331 173.985,349.455 205.575,375.962L188.494,396.318C150.888,364.762 129.169,318.186 129.169,269.094C129.169,177.371 203.525,103.015 295.248,103.015Z" style="fill:white;"/>
        </g>
        <g transform="matrix(0.143412,0.0330457,-0.0201157,-0.173132,239.563,545.781)">
            <path d="M134.476,313.238L1567.42,586.732" style="fill:none;stroke:white;stroke-width:151.56px;"/>
        </g>
        <g transform="matrix(-0.701252,-8.58785e-17,8.58785e-17,-0.701252,732.572,866.205)">
            <path d="M595.465,323.676C630.882,323.676 659.636,352.43 659.636,387.847C659.636,423.264 630.882,452.018 595.465,452.018C560.048,452.018 531.294,423.264 531.294,387.847C531.294,352.43 560.048,323.676 595.465,323.676ZM595.465,352.197C575.789,352.197 559.814,368.171 559.814,387.847C559.814,407.523 575.789,423.498 595.465,423.498C615.141,423.498 631.115,407.523 631.115,387.847C631.115,368.171 615.141,352.197 595.465,352.197Z" style="fill:white;"/>
        </g>
        <g transform="matrix(-0.701252,-8.58785e-17,8.58785e-17,-0.701252,1037.57,866.189)">
            <path d="M595.465,323.676C630.882,323.676 659.636,352.43 659.636,387.847C659.636,423.264 630.882,452.018 595.465,452.018C560.048,452.018 531.294,423.264 531.294,387.847C531.294,352.43 560.048,323.676 595.465,323.676ZM595.465,352.197C575.789,352.197 559.814,368.171 559.814,387.847C559.814,407.523 575.789,423.498 595.465,423.498C615.141,423.498 631.115,407.523 631.115,387.847C631.115,368.171 615.141,352.197 595.465,352.197Z" style="fill:white;"/>
        </g>
    </g>
</svg>
